# xmcd CD database file
#
# Track frame offsets:
#        150
#        14590
#        33095
#        46965
#        61999
#        77023
#        98145
#        113951
#        130385
#        146475
#        170736
#
# Disc length: 2422 seconds
#
# Revision: 0
# Processed by: cddbd v1.5.2PL0 Copyright (c) Steve Scherf et al.
# Submitted via: CUERipper 2.1.6
#
DISCID=9209740b
DTITLE=Michaela Anne - Desert Dove
DYEAR=2019
DGENRE=Americana
TTITLE0=By Our Design
TTITLE1=One Heart
TTITLE2=I'm Not The Fire
TTITLE3=Child Of The Wind
TTITLE4=Tattered, Torn And Blue (And Crazy)
TTITLE5=Desert Dove
TTITLE6=Run Away With Me
TTITLE7=Two Fools
TTITLE8=If I Wanted Your Opinion
TTITLE9=Somebody New
TTITLE10=Be Easy
EXTD=
EXTT0=
EXTT1=
EXTT2=
EXTT3=
EXTT4=
EXTT5=
EXTT6=
EXTT7=
EXTT8=
EXTT9=
EXTT10=
PLAYORDER=
